<svg width="23" height="23" viewBox="0 0 23 23" fill="none" xmlns="http://www.w3.org/2000/svg">
<path d="M12 7.00781C9.5 7.00781 7.50781 9.03906 7.50781 11.5C7.50781 14 9.5 15.9922 12 15.9922C14.4609 15.9922 16.4922 14 16.4922 11.5C16.4922 9.03906 14.4609 7.00781 12 7.00781ZM12 14.4297C10.3984 14.4297 9.07031 13.1406 9.07031 11.5C9.07031 9.89844 10.3594 8.60938 12 8.60938C13.6016 8.60938 14.8906 9.89844 14.8906 11.5C14.8906 13.1406 13.6016 14.4297 12 14.4297ZM17.7031 6.85156C17.7031 6.26562 17.2344 5.79688 16.6484 5.79688C16.0625 5.79688 15.5938 6.26562 15.5938 6.85156C15.5938 7.4375 16.0625 7.90625 16.6484 7.90625C17.2344 7.90625 17.7031 7.4375 17.7031 6.85156ZM20.6719 7.90625C20.5938 6.5 20.2812 5.25 19.2656 4.23438C18.25 3.21875 17 2.90625 15.5938 2.82812C14.1484 2.75 9.8125 2.75 8.36719 2.82812C6.96094 2.90625 5.75 3.21875 4.69531 4.23438C3.67969 5.25 3.36719 6.5 3.28906 7.90625C3.21094 9.35156 3.21094 13.6875 3.28906 15.1328C3.36719 16.5391 3.67969 17.75 4.69531 18.8047C5.75 19.8203 6.96094 20.1328 8.36719 20.2109C9.8125 20.2891 14.1484 20.2891 15.5938 20.2109C17 20.1328 18.25 19.8203 19.2656 18.8047C20.2812 17.75 20.5938 16.5391 20.6719 15.1328C20.75 13.6875 20.75 9.35156 20.6719 7.90625ZM18.7969 16.6562C18.5234 17.4375 17.8984 18.0234 17.1562 18.3359C15.9844 18.8047 13.25 18.6875 12 18.6875C10.7109 18.6875 7.97656 18.8047 6.84375 18.3359C6.0625 18.0234 5.47656 17.4375 5.16406 16.6562C4.69531 15.5234 4.8125 12.7891 4.8125 11.5C4.8125 10.25 4.69531 7.51562 5.16406 6.34375C5.47656 5.60156 6.0625 5.01562 6.84375 4.70312C7.97656 4.23438 10.7109 4.35156 12 4.35156C13.25 4.35156 15.9844 4.23438 17.1562 4.70312C17.8984 4.97656 18.4844 5.60156 18.7969 6.34375C19.2656 7.51562 19.1484 10.25 19.1484 11.5C19.1484 12.7891 19.2656 15.5234 18.7969 16.6562Z" fill="#01052F"/>
</svg>
