<svg width="23" height="23" viewBox="0 0 23 23" fill="none" xmlns="http://www.w3.org/2000/svg">
<path d="M20.125 4C21.1602 4 22 4.83945 22 5.875C22 6.46484 21.7227 7.01953 21.25 7.375L12.75 13.75C12.5334 13.9117 12.2703 13.999 12 13.999C11.7297 13.999 11.4666 13.9117 11.25 13.75L2.75 7.375C2.27785 7.01953 2 6.46484 2 5.875C2 4.83945 2.83945 4 3.875 4H20.125ZM10.5 14.75C10.9325 15.0752 11.4589 15.251 12 15.251C12.5411 15.251 13.0675 15.0752 13.5 14.75L22 8.375V16.5C22 17.8789 20.8789 19 19.5 19H4.5C3.11914 19 2 17.8789 2 16.5V8.375L10.5 14.75Z" fill="#01052F"/>
</svg>
