<svg width="23" height="23" viewBox="0 0 23 23" fill="none" xmlns="http://www.w3.org/2000/svg">
<path d="M12 1.8125C6.64844 1.8125 2.3125 6.14844 2.3125 11.5C2.3125 16.8516 6.64844 21.1875 12 21.1875C17.3516 21.1875 21.6875 16.8516 21.6875 11.5C21.6875 6.14844 17.3516 1.8125 12 1.8125ZM16.7266 8.45312L15.1641 15.9531C15.0469 16.5 14.7344 16.6172 14.2656 16.3828L11.8438 14.5859L10.6719 15.7188C10.5547 15.8359 10.4375 15.9531 10.2031 15.9531L10.3594 13.4922L14.8516 9.42969C15.0469 9.27344 14.8125 9.15625 14.5391 9.3125L8.99219 12.8281L6.60938 12.0859C6.10156 11.9297 6.10156 11.5391 6.72656 11.3047L16.0625 7.71094C16.4922 7.55469 16.8828 7.82812 16.7266 8.45312Z" fill="#01052F"/>
</svg>
